<svg xmlns="http://www.w3.org/2000/svg" viewBox="0 0 168 128" fill="none">
 <defs><linearGradient id="blue" x1="34" y1="28" x2="126" y2="107" gradientUnits="userSpaceOnUse"><stop stop-color="#b9cedf"/><stop offset="1" stop-color="#7c9cb6"/></linearGradient><linearGradient id="coral" x1="42" y1="30" x2="117" y2="98" gradientUnits="userSpaceOnUse"><stop stop-color="#ffb294"/><stop offset="1" stop-color="#ff6b5b"/></linearGradient></defs>
 <ellipse cx="86" cy="114" rx="60" ry="6" fill="#1f3a5f" opacity=".07"/>
 <path d="M103 20h27l10 10v47a4 4 0 0 1-4 4h-33a4 4 0 0 1-4-4V24a4 4 0 0 1 4-4Z" fill="#f3f6f8" stroke="#d6e2e9" stroke-width="1.5"/>
 <path d="M130 20v10h10" stroke="#d6e2e9" stroke-width="1.5"/>
 <path d="M106 41h25m-25 8h18m-18 8h22" stroke="#d6e2e9" stroke-width="2" stroke-linecap="round"/>
 <g stroke-linecap="round" stroke-linejoin="round"><rect x="35" y="32" width="59" height="68" rx="9" fill="#b6c8d6"/><rect x="35" y="26" width="59" height="68" rx="9" fill="#fff" stroke="#cbd9e3" stroke-width="2"/><path d="M35 35a9 9 0 0 1 9-9h41a9 9 0 0 1 9 9v14H35Z" fill="url(#blue)"/><path d="M48 20v15M80 20v15" stroke="#526b86" stroke-width="4"/><path d="M47 60h8m7 0h8m7 0h5M47 73h8m7 0h8" stroke="#b8cad8" stroke-width="4"/><rect x="75" y="68" width="10" height="10" rx="3" fill="#ff6b5b"/><path d="M108 45c-15-10-26 3-21 18 4 12 6 39 13 39 5 0 2-18 9-18s4 18 9 18c7 0 9-27 13-39 5-15-6-28-23-18Z" fill="#eef5f8" stroke="#b3c7d7" stroke-width="2"/><path d="M107 51q5 3 10 0" fill="none" stroke="#c5d8e4" stroke-width="3"/><path d="M111 61v12m-6-6h12" stroke="#60a88c" stroke-width="3"/></g></svg>