<svg xmlns="http://www.w3.org/2000/svg" viewBox="0 0 360 230" fill="none"><defs><filter id="s" x="-30%" y="-30%" width="160%" height="180%"><feDropShadow dx="0" dy="5" stdDeviation="5" flood-color="#1F3A5F" flood-opacity=".09"/></filter></defs><ellipse cx="180" cy="209" rx="148" ry="10" fill="#1F3A5F" opacity=".055"/><circle cx="180" cy="110" r="97" fill="#FFF1EB"/><g stroke="#1F3A5F" stroke-width="2.5" stroke-linecap="round" stroke-linejoin="round"><rect x="66" y="38" width="213" height="140" rx="10" fill="#fff" stroke="#CBD6DF" filter="url(#s)"/><path d="M66 56h213" stroke="#CBD6DF"/><circle cx="76" cy="47" r="2" fill="#FF6B5B" stroke="none"/><circle cx="84" cy="47" r="2" fill="#D9E1E7" stroke="none"/><rect x="92" y="81" width="131" height="16" rx="4" fill="#F3F5F6" stroke="#D9E1E6"/><rect x="92" y="109" width="131" height="16" rx="4" fill="#F3F5F6" stroke="#D9E1E6"/><rect x="92" y="140" width="75" height="20" rx="5" fill="#FF6B5B" stroke="none"/><path d="M51 181h240l-11 13H62Z" fill="#DCE5ED"/><g transform="translate(244 84) scale(0.9)"><rect width="52" height="38" rx="7" fill="#fff"/><path d="m2 5 24 17L50 5"/><path d="m2 34 16-13m32 13L34 21" opacity=".35"/></g><g transform="translate(294 83)"><circle r="15" fill="#fff" stroke="#FF6B5B"/><path d="m-7 0 5 5 10-11" stroke="#FF6B5B"/></g></g></svg>
